<svg width="48" height="48" viewBox="0 0 48 48" fill="none" xmlns="http://www.w3.org/2000/svg">
<mask id="mask0_58_884" style="mask-type:alpha" maskUnits="userSpaceOnUse" x="0" y="0" width="48" height="48">
<rect width="48" height="48" fill="#D9D9D9"/>
</mask>
<g mask="url(#mask0_58_884)">
<path d="M23.9 42.1L23 24L16 22H4C3.43333 22 2.95833 21.8083 2.575 21.425C2.19167 21.0417 2 20.5667 2 20C2 19.4333 2.19167 18.9583 2.575 18.575C2.95833 18.1917 3.43333 18 4 18H14L26.5 9.05C26.9333 8.75 27.4 8.63333 27.9 8.7C28.4 8.76667 28.8333 9 29.2 9.4C29.5667 9.86667 29.7167 10.375 29.65 10.925C29.5833 11.475 29.3167 11.9333 28.85 12.3L22.3 17H28L42.3 8.75C42.6667 8.51667 43.075 8.45 43.525 8.55C43.975 8.65 44.3833 8.91667 44.75 9.35C45.1167 9.75 45.2667 10.2083 45.2 10.725C45.1333 11.2417 44.8833 11.6667 44.45 12L29 24L28.1 42.1C28.0667 42.6333 27.85 43.0833 27.45 43.45C27.05 43.8167 26.5333 44 25.9 44C25.3667 44 24.9083 43.8167 24.525 43.45C24.1417 43.0833 23.9333 42.6333 23.9 42.1ZM12 16C10.9 16 9.95833 15.6083 9.175 14.825C8.39167 14.0417 8 13.1 8 12C8 10.9 8.39167 9.95833 9.175 9.175C9.95833 8.39167 10.9 8 12 8C13.1 8 14.0417 8.39167 14.825 9.175C15.6083 9.95833 16 10.9 16 12C16 13.1 15.6083 14.0417 14.825 14.825C14.0417 15.6083 13.1 16 12 16Z" fill="#B02468"/>
</g>
</svg>
