<svg width="48" height="48" viewBox="0 0 48 48" fill="none" xmlns="http://www.w3.org/2000/svg">
<mask id="mask0_58_878" style="mask-type:alpha" maskUnits="userSpaceOnUse" x="0" y="0" width="48" height="48">
<rect width="48" height="48" fill="#D9D9D9"/>
</mask>
<g mask="url(#mask0_58_878)">
<path d="M14.1 16.9L8.4 22.6C8.03333 22.9667 7.575 23.1583 7.025 23.175C6.475 23.1917 6 23 5.6 22.6C5.23333 22.2333 5.04167 21.775 5.025 21.225C5.00833 20.675 5.18333 20.2 5.55 19.8L7 18.3L5.6 16.9C5.2 16.5 5 16.0333 5 15.5C5 14.9667 5.2 14.5 5.6 14.1L8.4 11.3L6.95 9.8C6.58333 9.43333 6.4 8.975 6.4 8.425C6.4 7.875 6.6 7.4 7 7C7.36667 6.63333 7.825 6.44167 8.375 6.425C8.925 6.40833 9.4 6.58333 9.8 6.95L11.3 8.4L14.1 5.6C14.5 5.2 14.9667 5 15.5 5C16.0333 5 16.5 5.2 16.9 5.6L18.3 7L19.8 5.55C20.1667 5.18333 20.625 5 21.175 5C21.725 5 22.2 5.2 22.6 5.6C22.9667 5.96667 23.15 6.43333 23.15 7C23.15 7.56667 22.9667 8.03333 22.6 8.4L16.9 14.1L33.9 31.1L39.6 25.4C39.9667 25.0333 40.425 24.8417 40.975 24.825C41.525 24.8083 42 25 42.4 25.4C42.7667 25.7667 42.9583 26.225 42.975 26.775C42.9917 27.325 42.8167 27.8 42.45 28.2L41 29.7L42.4 31.1C42.8 31.5 43 31.9667 43 32.5C43 33.0333 42.8 33.5 42.4 33.9L39.6 36.7L41.05 38.2C41.4167 38.5667 41.6 39.025 41.6 39.575C41.6 40.125 41.4 40.6 41 41C40.6333 41.3667 40.175 41.5583 39.625 41.575C39.075 41.5917 38.6 41.4167 38.2 41.05L36.7 39.6L33.9 42.4C33.5 42.8 33.0333 43 32.5 43C31.9667 43 31.5 42.8 31.1 42.4L29.7 41L28.2 42.45C27.8333 42.8167 27.375 43 26.825 43C26.275 43 25.8 42.8 25.4 42.4C25.0333 42.0333 24.85 41.5667 24.85 41C24.85 40.4333 25.0333 39.9667 25.4 39.6L31.1 33.9L14.1 16.9Z" fill="#B02468"/>
</g>
</svg>
