<svg width="32" height="32" viewBox="0 0 32 32" fill="none" xmlns="http://www.w3.org/2000/svg">
<mask id="mask0_123_776" style="mask-type:alpha" maskUnits="userSpaceOnUse" x="0" y="0" width="32" height="32">
<rect width="32" height="32" fill="#D9D9D9"/>
</mask>
<g mask="url(#mask0_123_776)">
<path d="M16 30.6666C12.6889 30.6666 9.86111 30.1944 7.51667 29.25C5.17222 28.3055 4 27 4 25.3333C4 24.6222 4.22222 23.9833 4.66667 23.4166C5.11111 22.85 5.73333 22.3444 6.53333 21.9L8.7 23.8333C8.16667 24.0111 7.69444 24.2389 7.28333 24.5166C6.87222 24.7944 6.66667 25.0666 6.66667 25.3333C6.66667 25.9111 7.56667 26.5 9.36667 27.1C11.1667 27.7 13.3778 28 16 28C18.6222 28 20.8333 27.7 22.6333 27.1C24.4333 26.5 25.3333 25.9111 25.3333 25.3333C25.3333 25.0666 25.1278 24.7944 24.7167 24.5166C24.3056 24.2389 23.8333 24.0111 23.3 23.8333L25.4667 21.9C26.2667 22.3444 26.8889 22.85 27.3333 23.4166C27.7778 23.9833 28 24.6222 28 25.3333C28 27 26.8278 28.3055 24.4833 29.25C22.1389 30.1944 19.3111 30.6666 16 30.6666ZM16 25.3333C15.5111 25.3333 15.0389 25.25 14.5833 25.0833C14.1278 24.9166 13.7111 24.6666 13.3333 24.3333L4.93333 16.9C4.64444 16.6555 4.41667 16.3555 4.25 16C4.08333 15.6444 4 15.2778 4 14.9V12.2333C4 11.8555 4.07222 11.4889 4.21667 11.1333C4.36111 10.7778 4.57778 10.4778 4.86667 10.2333L13.2667 2.39998C13.6444 2.04442 14.0667 1.77776 14.5333 1.59998C15 1.4222 15.4889 1.33331 16 1.33331C16.5111 1.33331 17 1.4222 17.4667 1.59998C17.9333 1.77776 18.3556 2.04442 18.7333 2.39998L27.1333 10.2333C27.4222 10.4778 27.6389 10.7778 27.7833 11.1333C27.9278 11.4889 28 11.8555 28 12.2333V14.9C28 15.2778 27.9167 15.6444 27.75 16C27.5833 16.3555 27.3556 16.6555 27.0667 16.9L18.6667 24.3333C18.2889 24.6666 17.8722 24.9166 17.4167 25.0833C16.9611 25.25 16.4889 25.3333 16 25.3333ZM12 13.6666C12.4667 13.6666 12.8611 13.5055 13.1833 13.1833C13.5056 12.8611 13.6667 12.4666 13.6667 12C13.6667 11.5333 13.5056 11.1389 13.1833 10.8166C12.8611 10.4944 12.4667 10.3333 12 10.3333C11.5333 10.3333 11.1389 10.4944 10.8167 10.8166C10.4944 11.1389 10.3333 11.5333 10.3333 12C10.3333 12.4666 10.4944 12.8611 10.8167 13.1833C11.1389 13.5055 11.5333 13.6666 12 13.6666ZM13.6667 15.4666C14.6222 15.9333 15.6278 16.0833 16.6833 15.9166C17.7389 15.75 18.6667 15.3111 19.4667 14.6C20.2222 13.9555 20.7167 13.1444 20.95 12.1666C21.1833 11.1889 21.0667 10.2666 20.6 9.39998L13.6667 15.4666ZM16 9.66665C16.4667 9.66665 16.8611 9.50554 17.1833 9.18331C17.5056 8.86109 17.6667 8.46665 17.6667 7.99998C17.6667 7.53331 17.5056 7.13887 17.1833 6.81665C16.8611 6.49442 16.4667 6.33331 16 6.33331C15.5333 6.33331 15.1389 6.49442 14.8167 6.81665C14.4944 7.13887 14.3333 7.53331 14.3333 7.99998C14.3333 8.46665 14.4944 8.86109 14.8167 9.18331C15.1389 9.50554 15.5333 9.66665 16 9.66665Z" fill="#B02468"/>
</g>
</svg>
