<svg width="48" height="48" viewBox="0 0 48 48" fill="none" xmlns="http://www.w3.org/2000/svg">
<mask id="mask0_58_920" style="mask-type:alpha" maskUnits="userSpaceOnUse" x="0" y="0" width="48" height="48">
<rect width="48" height="48" fill="#D9D9D9"/>
</mask>
<g mask="url(#mask0_58_920)">
<path d="M24 46C19.0333 46 14.7917 45.2917 11.275 43.875C7.75833 42.4583 6 40.5 6 38C6 36.9333 6.33333 35.975 7 35.125C7.66667 34.275 8.6 33.5167 9.8 32.85L13.05 35.75C12.25 36.0167 11.5417 36.3583 10.925 36.775C10.3083 37.1917 10 37.6 10 38C10 38.8667 11.35 39.75 14.05 40.65C16.75 41.55 20.0667 42 24 42C27.9333 42 31.25 41.55 33.95 40.65C36.65 39.75 38 38.8667 38 38C38 37.6 37.6917 37.1917 37.075 36.775C36.4583 36.3583 35.75 36.0167 34.95 35.75L38.2 32.85C39.4 33.5167 40.3333 34.275 41 35.125C41.6667 35.975 42 36.9333 42 38C42 40.5 40.2417 42.4583 36.725 43.875C33.2083 45.2917 28.9667 46 24 46ZM24 38C23.2667 38 22.5583 37.875 21.875 37.625C21.1917 37.375 20.5667 37 20 36.5L7.4 25.35C6.96667 24.9833 6.625 24.5333 6.375 24C6.125 23.4667 6 22.9167 6 22.35V18.35C6 17.7833 6.10833 17.2333 6.325 16.7C6.54167 16.1667 6.86667 15.7167 7.3 15.35L19.9 3.6C20.4667 3.06667 21.1 2.66667 21.8 2.4C22.5 2.13333 23.2333 2 24 2C24.7667 2 25.5 2.13333 26.2 2.4C26.9 2.66667 27.5333 3.06667 28.1 3.6L40.7 15.35C41.1333 15.7167 41.4583 16.1667 41.675 16.7C41.8917 17.2333 42 17.7833 42 18.35V22.35C42 22.9167 41.875 23.4667 41.625 24C41.375 24.5333 41.0333 24.9833 40.6 25.35L28 36.5C27.4333 37 26.8083 37.375 26.125 37.625C25.4417 37.875 24.7333 38 24 38ZM18 20.5C18.7 20.5 19.2917 20.2583 19.775 19.775C20.2583 19.2917 20.5 18.7 20.5 18C20.5 17.3 20.2583 16.7083 19.775 16.225C19.2917 15.7417 18.7 15.5 18 15.5C17.3 15.5 16.7083 15.7417 16.225 16.225C15.7417 16.7083 15.5 17.3 15.5 18C15.5 18.7 15.7417 19.2917 16.225 19.775C16.7083 20.2583 17.3 20.5 18 20.5ZM20.5 23.2C21.9333 23.9 23.4417 24.125 25.025 23.875C26.6083 23.625 28 22.9667 29.2 21.9C30.3333 20.9333 31.075 19.7167 31.425 18.25C31.775 16.7833 31.6 15.4 30.9 14.1L20.5 23.2ZM24 14.5C24.7 14.5 25.2917 14.2583 25.775 13.775C26.2583 13.2917 26.5 12.7 26.5 12C26.5 11.3 26.2583 10.7083 25.775 10.225C25.2917 9.74167 24.7 9.5 24 9.5C23.3 9.5 22.7083 9.74167 22.225 10.225C21.7417 10.7083 21.5 11.3 21.5 12C21.5 12.7 21.7417 13.2917 22.225 13.775C22.7083 14.2583 23.3 14.5 24 14.5Z" fill="white"/>
</g>
</svg>
